<svg width="32" height="32" viewBox="0 0 32 32" fill="none" xmlns="http://www.w3.org/2000/svg">
<path d="M16 23.7776C15.2841 23.7776 14.7037 24.358 14.7037 25.0739C14.7037 25.7899 15.2841 26.3702 16 26.3702C16.7159 26.3702 17.2963 25.7899 17.2963 25.0739C17.2963 24.358 16.7159 23.7776 16 23.7776Z" fill="#FF7F50"/>
<path fill-rule="evenodd" clip-rule="evenodd" d="M27.6667 5.62949C27.6667 3.48172 25.9256 1.7406 23.7778 1.7406H8.22223C6.07446 1.7406 4.33334 3.48172 4.33334 5.62949V26.3702C4.33334 28.518 6.07446 30.2591 8.22223 30.2591H23.7778C25.9256 30.2591 27.6667 28.518 27.6667 26.3702V5.62949ZM25.0741 5.62949C25.0741 4.91356 24.4937 4.33319 23.7778 4.33319H8.22223C7.50631 4.33319 6.92594 4.91357 6.92594 5.62949V19.8888H25.0741V5.62949ZM6.92594 26.3702V22.4813H25.0741V26.3702C25.0741 27.0862 24.4937 27.6665 23.7778 27.6665H8.22223C7.50631 27.6665 6.92594 27.0862 6.92594 26.3702Z" fill="#FF7F50"/>
</svg>
